<svg width="60" height="60" viewBox="0 0 60 60" fill="none" xmlns="http://www.w3.org/2000/svg">
<path fill-rule="evenodd" clip-rule="evenodd" d="M43.2427 15.1588C39.6046 15.9637 36.5251 19.0349 35.1984 23.1817L34.9199 24.0521L33.9712 23.9937C33.0628 23.9378 16.9235 23.2394 16.5408 23.2394C16.3922 23.2394 16.3327 23.1139 16.2399 22.6044C15.9966 21.2686 15.2301 19.8061 14.2743 18.8535C12.5955 17.1805 10.1651 16.702 8.28182 17.6737C6.5393 18.5727 4.95212 21.1267 4.2344 24.1862C3.94106 25.4371 3.91902 27.87 4.19103 28.9876C4.58 30.5857 5.72736 32.5014 6.77032 33.2945C6.98061 33.4545 7.14074 33.6632 7.14104 33.7778C7.14124 33.8887 6.8125 36.4527 6.41047 39.4755C6.00854 42.4984 5.68957 44.9842 5.70183 44.9997C5.7141 45.015 8.04092 44.4931 10.8725 43.8399C14.8713 42.9173 16.0202 42.6184 16.0184 42.5009C16.0171 42.4177 15.5772 40.0806 15.0407 37.3073L14.0653 32.2651L14.4024 31.8617C14.5879 31.6398 14.9232 31.084 15.1477 30.6263L15.556 29.7944L15.9635 29.7959C17.1422 29.8004 34.5817 30.5978 34.667 30.651C34.7223 30.6856 34.7674 30.7969 34.7674 30.8983C34.7674 31.3054 35.3048 32.9288 35.7582 33.8917C36.3924 35.2382 36.9235 36.0187 37.9005 37.0402C40.111 39.3515 42.945 40.3442 45.8632 39.8295C48.0099 39.4509 49.7486 38.4698 51.3963 36.7072C53.1781 34.8014 54.333 32.3635 54.8207 29.4788C55.1061 27.7916 55.0456 25.4307 54.6763 23.8445C53.6609 19.4835 50.8782 16.2574 47.281 15.2711C46.1422 14.9587 44.3698 14.9095 43.2427 15.1588ZM11.7068 19.7522C12.4251 20.0824 13.18 20.8294 13.5579 21.5838C13.8391 22.1455 14.1523 23.1393 14.0473 23.1371C14.0091 23.1364 12.5421 23.0692 10.7872 22.9877C9.03234 22.9062 7.45293 22.8387 7.27755 22.8378L6.95857 22.836L7.09996 22.4938C7.57827 21.3359 8.49131 20.1657 9.28013 19.6993C9.7314 19.4326 9.86482 19.4018 10.4383 19.4326C10.8794 19.4562 11.2845 19.5582 11.7068 19.7522ZM46.6208 19.733C47.9249 20.227 48.9807 21.2953 49.7372 22.8864C50.7513 25.0195 50.8983 27.8913 50.1165 30.2985C49.0025 33.7283 46.2999 35.9102 43.7279 35.4562C42.4668 35.2336 41.1387 34.3304 40.3348 33.1487C39.8891 32.4935 39.3819 31.348 39.1397 30.4498C38.8188 29.2599 38.8155 26.6946 39.1332 25.4202C39.5825 23.6173 40.3409 22.217 41.4887 21.0712C43.014 19.5485 44.8621 19.0666 46.6208 19.733ZM10.4383 29.5438C11.3431 29.5744 12.3168 29.6236 12.6019 29.6532L13.1206 29.7067L12.8166 30.2063C12.6495 30.481 12.3115 30.8459 12.0655 31.017C11.717 31.2595 11.629 31.3758 11.6666 31.5445C11.8876 32.5374 13.4507 40.8973 13.4198 40.921C13.3291 40.9902 8.40457 42.0911 8.36488 42.0511C8.34125 42.0271 8.59611 39.9464 8.93133 37.4274C9.26658 34.9082 9.54075 32.7389 9.54065 32.6065C9.54044 32.4157 9.42171 32.3037 8.96733 32.0657C8.22868 31.6789 7.47966 30.9151 7.07184 30.1332C6.89426 29.7927 6.74898 29.4801 6.74898 29.4388C6.74898 29.3973 7.20885 29.3915 7.77101 29.4256C8.33317 29.4599 9.53336 29.513 10.4383 29.5438Z" fill="white"/>
</svg>
