<svg width="2366" height="1220" viewBox="0 0 2366 1220" fill="none" xmlns="http://www.w3.org/2000/svg">
<mask id="mask0_132_442" style="mask-type:alpha" maskUnits="userSpaceOnUse" x="0" y="0" width="2366" height="1220">
<rect width="2366" height="1220" fill="url(#paint0_radial_132_442)" fill-opacity="0.7"/>
</mask>
<g mask="url(#mask0_132_442)">
<rect x="187.5" y="94.5" width="199" height="199" stroke="white" stroke-opacity="0.05"/>
<mask id="path-5-inside-1_132_442" fill="white">
<path d="M386 94H586V294H386V94Z"/>
</mask>
<path d="M386 94H586V294H386V94Z" fill="white" fill-opacity="0.05"/>
<path d="M386 94V93H385V94H386ZM586 94H587V93H586V94ZM386 95H586V93H386V95ZM585 94V294H587V94H585ZM387 294V94H385V294H387Z" fill="white" fill-opacity="0.2" mask="url(#path-5-inside-1_132_442)"/>
<rect x="585.5" y="94.5" width="199" height="199" stroke="white" stroke-opacity="0.05"/>
<rect x="784.5" y="94.5" width="199" height="199" stroke="white" stroke-opacity="0.05"/>
<rect x="983.5" y="94.5" width="199" height="199" stroke="white" stroke-opacity="0.05"/>
<rect x="1182" y="94" width="200" height="200" fill="white" fill-opacity="0.05"/>
<rect x="1182.5" y="94.5" width="199" height="199" stroke="white" stroke-opacity="0.2"/>
<rect x="1381.5" y="94.5" width="199" height="199" stroke="white" stroke-opacity="0.05"/>
<rect x="1580.5" y="94.5" width="199" height="199" stroke="white" stroke-opacity="0.05"/>
<rect x="1779" y="94" width="200" height="200" fill="white" fill-opacity="0.05"/>
<rect x="1779.5" y="94.5" width="199" height="199" stroke="white" stroke-opacity="0.2"/>
<rect x="1978.5" y="94.5" width="199" height="199" stroke="white" stroke-opacity="0.05"/>
<rect x="187.5" y="94.5" width="1990" height="199" stroke="white" stroke-opacity="0.05"/>
<rect x="187.5" y="293.5" width="199" height="199" stroke="white" stroke-opacity="0.05"/>
<rect x="386.5" y="293.5" width="199" height="199" stroke="white" stroke-opacity="0.05"/>
<rect x="585.5" y="293.5" width="199" height="199" stroke="white" stroke-opacity="0.05"/>
<rect x="784" y="293" width="200" height="200" fill="white" fill-opacity="0.05"/>
<rect x="784.5" y="293.5" width="199" height="199" stroke="white" stroke-opacity="0.2"/>
<rect x="983.5" y="293.5" width="199" height="199" stroke="white" stroke-opacity="0.05"/>
<rect x="1182.5" y="293.5" width="199" height="199" stroke="white" stroke-opacity="0.05"/>
<rect x="1381.5" y="293.5" width="199" height="199" stroke="white" stroke-opacity="0.05"/>
<rect x="1580.5" y="293.5" width="199" height="199" stroke="white" stroke-opacity="0.05"/>
<rect x="1779.5" y="293.5" width="199" height="199" stroke="white" stroke-opacity="0.05"/>
<rect x="1978.5" y="293.5" width="199" height="199" stroke="white" stroke-opacity="0.05"/>
<rect x="187.5" y="293.5" width="1990" height="199" stroke="white" stroke-opacity="0.05"/>
<rect x="187.5" y="492.5" width="199" height="199" stroke="white" stroke-opacity="0.05"/>
<rect x="386.5" y="492.5" width="199" height="199" stroke="white" stroke-opacity="0.05"/>
<rect x="585.5" y="492.5" width="199" height="199" stroke="white" stroke-opacity="0.05"/>
<rect x="784.5" y="492.5" width="199" height="199" stroke="white" stroke-opacity="0.05"/>
<rect x="983.5" y="492.5" width="199" height="199" stroke="white" stroke-opacity="0.05"/>
<rect x="1182.5" y="492.5" width="199" height="199" stroke="white" stroke-opacity="0.05"/>
<rect x="1381.5" y="492.5" width="199" height="199" stroke="white" stroke-opacity="0.05"/>
<rect x="1580" y="492" width="200" height="200" fill="white" fill-opacity="0.05"/>
<rect x="1580.5" y="492.5" width="199" height="199" stroke="white" stroke-opacity="0.2"/>
<rect x="1779.5" y="492.5" width="199" height="199" stroke="white" stroke-opacity="0.05"/>
<rect x="1978.5" y="492.5" width="199" height="199" stroke="white" stroke-opacity="0.05"/>
<rect x="187.5" y="492.5" width="1990" height="199" stroke="white" stroke-opacity="0.05"/>
<rect x="187" y="691" width="200" height="200" fill="white" fill-opacity="0.05"/>
<rect x="187.5" y="691.5" width="199" height="199" stroke="white" stroke-opacity="0.2"/>
<rect x="386.5" y="691.5" width="199" height="199" stroke="white" stroke-opacity="0.05"/>
<rect x="585.5" y="691.5" width="199" height="199" stroke="white" stroke-opacity="0.05"/>
<rect x="784.5" y="691.5" width="199" height="199" stroke="white" stroke-opacity="0.05"/>
<rect x="983" y="691" width="200" height="200" fill="white" fill-opacity="0.05"/>
<rect x="983.5" y="691.5" width="199" height="199" stroke="white" stroke-opacity="0.2"/>
<rect x="1182.5" y="691.5" width="199" height="199" stroke="white" stroke-opacity="0.05"/>
<rect x="1381.5" y="691.5" width="199" height="199" stroke="white" stroke-opacity="0.05"/>
<rect x="1580.5" y="691.5" width="199" height="199" stroke="white" stroke-opacity="0.05"/>
<rect x="1779.5" y="691.5" width="199" height="199" stroke="white" stroke-opacity="0.05"/>
<rect x="1978" y="691" width="200" height="200" fill="white" fill-opacity="0.05"/>
<rect x="1978.5" y="691.5" width="199" height="199" stroke="white" stroke-opacity="0.2"/>
<rect x="187.5" y="691.5" width="1990" height="199" stroke="white" stroke-opacity="0.05"/>
<rect x="187.5" y="890.5" width="199" height="199" stroke="white" stroke-opacity="0.05"/>
<rect x="386.5" y="890.5" width="199" height="199" stroke="white" stroke-opacity="0.05"/>
<rect x="585" y="890" width="200" height="200" fill="white" fill-opacity="0.05"/>
<rect x="585.5" y="890.5" width="199" height="199" stroke="white" stroke-opacity="0.2"/>
<rect x="784.5" y="890.5" width="199" height="199" stroke="white" stroke-opacity="0.05"/>
<rect x="983.5" y="890.5" width="199" height="199" stroke="white" stroke-opacity="0.05"/>
<rect x="1182.5" y="890.5" width="199" height="199" stroke="white" stroke-opacity="0.05"/>
<rect x="1381.5" y="890.5" width="199" height="199" stroke="white" stroke-opacity="0.05"/>
<rect x="1580" y="890" width="200" height="200" fill="white" fill-opacity="0.05"/>
<rect x="1580.5" y="890.5" width="199" height="199" stroke="white" stroke-opacity="0.2"/>
<rect x="1779.5" y="890.5" width="199" height="199" stroke="white" stroke-opacity="0.05"/>
<rect x="1978.5" y="890.5" width="199" height="199" stroke="white" stroke-opacity="0.05"/>
<rect x="187.5" y="890.5" width="1990" height="199" stroke="white" stroke-opacity="0.05"/>
</g>
<defs>
<radialGradient id="paint0_radial_132_442" cx="0" cy="0" r="1" gradientUnits="userSpaceOnUse" gradientTransform="translate(1183 538) rotate(90) scale(569 1103.49)">
<stop stop-color="#D9D9D9"/>
<stop offset="1" stop-color="#D9D9D9" stop-opacity="0"/>
</radialGradient>
</defs>
</svg>
